<mxfile host="app.diagrams.net" modified="2022-02-21T03:40:13.976Z" agent="5.0 (Windows)" etag="DvDD4sMoypzRq1cNQEBa" version="16.5.6" type="github">
  <diagram name="Page-1" id="c4acf3e9-155e-7222-9cf6-157b1a14988f">
    <mxGraphModel dx="1240" dy="1041" grid="1" gridSize="10" guides="1" tooltips="1" connect="1" arrows="1" fold="1" page="1" pageScale="1" pageWidth="1200" pageHeight="1920" background="none" math="0" shadow="0">
      <root>
        <mxCell id="0" />
        <mxCell id="1" parent="0" />
        <mxCell id="D1lF1ObZIwqADInwhETv-1" value="com.codename1.ui.Form" style="rounded=0;whiteSpace=wrap;html=1;" parent="1" vertex="1">
          <mxGeometry x="10" y="10" width="160" height="60" as="geometry" />
        </mxCell>
        <mxCell id="D1lF1ObZIwqADInwhETv-2" value="Game" style="swimlane;fontStyle=1;align=center;verticalAlign=top;childLayout=stackLayout;horizontal=1;startSize=26;horizontalStack=0;resizeParent=1;resizeParentMax=0;resizeLast=0;collapsible=1;marginBottom=0;" parent="1" vertex="1">
          <mxGeometry x="250" y="10" width="160" height="150" as="geometry" />
        </mxCell>
        <mxCell id="D1lF1ObZIwqADInwhETv-3" value="-gw: GameWorld&#xa;-exit: boolean&#xa;" style="text;strokeColor=none;fillColor=none;align=left;verticalAlign=top;spacingLeft=4;spacingRight=4;overflow=hidden;rotatable=0;points=[[0,0.5],[1,0.5]];portConstraint=eastwest;" parent="D1lF1ObZIwqADInwhETv-2" vertex="1">
          <mxGeometry y="26" width="160" height="54" as="geometry" />
        </mxCell>
        <mxCell id="D1lF1ObZIwqADInwhETv-4" value="" style="line;strokeWidth=1;fillColor=none;align=left;verticalAlign=middle;spacingTop=-1;spacingLeft=3;spacingRight=3;rotatable=0;labelPosition=right;points=[];portConstraint=eastwest;" parent="D1lF1ObZIwqADInwhETv-2" vertex="1">
          <mxGeometry y="80" width="160" height="8" as="geometry" />
        </mxCell>
        <mxCell id="D1lF1ObZIwqADInwhETv-5" value="+Game()&#xa;-play()&#xa;&#xa;" style="text;strokeColor=none;fillColor=none;align=left;verticalAlign=top;spacingLeft=4;spacingRight=4;overflow=hidden;rotatable=0;points=[[0,0.5],[1,0.5]];portConstraint=eastwest;" parent="D1lF1ObZIwqADInwhETv-2" vertex="1">
          <mxGeometry y="88" width="160" height="62" as="geometry" />
        </mxCell>
        <mxCell id="D1lF1ObZIwqADInwhETv-7" value="GameWorld" style="swimlane;fontStyle=1;align=center;verticalAlign=top;childLayout=stackLayout;horizontal=1;startSize=26;horizontalStack=0;resizeParent=1;resizeParentMax=0;resizeLast=0;collapsible=1;marginBottom=0;" parent="1" vertex="1">
          <mxGeometry x="470" y="10" width="220" height="390" as="geometry" />
        </mxCell>
        <mxCell id="D1lF1ObZIwqADInwhETv-8" value="-objectList: ArrayList&lt;GameObject&gt;&#xa;-lives: int&#xa;-clock: int-player: Ant&#xa;&#xa;" style="text;strokeColor=none;fillColor=none;align=left;verticalAlign=top;spacingLeft=4;spacingRight=4;overflow=hidden;rotatable=0;points=[[0,0.5],[1,0.5]];portConstraint=eastwest;" parent="D1lF1ObZIwqADInwhETv-7" vertex="1">
          <mxGeometry y="26" width="220" height="74" as="geometry" />
        </mxCell>
        <mxCell id="D1lF1ObZIwqADInwhETv-9" value="" style="line;strokeWidth=1;fillColor=none;align=left;verticalAlign=middle;spacingTop=-1;spacingLeft=3;spacingRight=3;rotatable=0;labelPosition=right;points=[];portConstraint=eastwest;" parent="D1lF1ObZIwqADInwhETv-7" vertex="1">
          <mxGeometry y="100" width="220" height="8" as="geometry" />
        </mxCell>
        <mxCell id="D1lF1ObZIwqADInwhETv-10" value="+init()&#xa;+addFlag()&#xa;+randomXYLocation: Point&#xa;+randomSize(): int&#xa;+randomSpeed(): int&#xa;+randomHeading(): int&#xa;+addSpider()&#xa;+addFoodStation()&#xa;+accelerate()&#xa;+brake()&#xa;+left()&#xa;+right()&#xa;+collideWithFlag()&#xa;+collideWithFoodStation()&#xa;+display()&#xa;+clockTick()&#xa;+spiderCollision()&#xa;+map()&#xa;&#xa;" style="text;strokeColor=none;fillColor=none;align=left;verticalAlign=top;spacingLeft=4;spacingRight=4;overflow=hidden;rotatable=0;points=[[0,0.5],[1,0.5]];portConstraint=eastwest;" parent="D1lF1ObZIwqADInwhETv-7" vertex="1">
          <mxGeometry y="108" width="220" height="282" as="geometry" />
        </mxCell>
        <mxCell id="D1lF1ObZIwqADInwhETv-11" value="&lt;p style=&quot;margin: 0px ; margin-top: 4px ; text-align: center&quot;&gt;&lt;i&gt;&amp;lt;&amp;lt;Interface&amp;gt;&amp;gt;&lt;/i&gt;&lt;/p&gt;&lt;p style=&quot;margin: 0px ; margin-top: 4px ; text-align: center&quot;&gt;&lt;b&gt;ISteerable&lt;/b&gt;&lt;br&gt;&lt;/p&gt;&lt;br&gt;&lt;hr size=&quot;1&quot;&gt;&lt;p style=&quot;margin: 0px ; margin-left: 4px&quot;&gt;+steering: int&lt;br&gt;&lt;/p&gt;" style="verticalAlign=top;align=left;overflow=fill;fontSize=12;fontFamily=Helvetica;html=1;" parent="1" vertex="1">
          <mxGeometry x="740" y="750" width="190" height="100" as="geometry" />
        </mxCell>
        <mxCell id="D1lF1ObZIwqADInwhETv-13" value="abstract GameObject" style="swimlane;fontStyle=1;align=center;verticalAlign=top;childLayout=stackLayout;horizontal=1;startSize=26;horizontalStack=0;resizeParent=1;resizeParentMax=0;resizeLast=0;collapsible=1;marginBottom=0;" parent="1" vertex="1">
          <mxGeometry x="930" y="10" width="200" height="220" as="geometry" />
        </mxCell>
        <mxCell id="D1lF1ObZIwqADInwhETv-14" value="-size: int&#xa;-location: Point&#xa;-color: int&#xa;&#xa;" style="text;strokeColor=none;fillColor=none;align=left;verticalAlign=top;spacingLeft=4;spacingRight=4;overflow=hidden;rotatable=0;points=[[0,0.5],[1,0.5]];portConstraint=eastwest;" parent="D1lF1ObZIwqADInwhETv-13" vertex="1">
          <mxGeometry y="26" width="200" height="54" as="geometry" />
        </mxCell>
        <mxCell id="D1lF1ObZIwqADInwhETv-15" value="" style="line;strokeWidth=1;fillColor=none;align=left;verticalAlign=middle;spacingTop=-1;spacingLeft=3;spacingRight=3;rotatable=0;labelPosition=right;points=[];portConstraint=eastwest;" parent="D1lF1ObZIwqADInwhETv-13" vertex="1">
          <mxGeometry y="80" width="200" height="8" as="geometry" />
        </mxCell>
        <mxCell id="D1lF1ObZIwqADInwhETv-16" value="+GameObject(int, Point, int, int, int)&#xa;+getSize(): int&#xa;+setSize(int) &#xa;+getLocation(): int&#xa;+setLocation(int)&#xa;+getColor(): int&#xa;+setColor(int, int, int)&#xa;+toString(): String&#xa;&#xa;" style="text;strokeColor=none;fillColor=none;align=left;verticalAlign=top;spacingLeft=4;spacingRight=4;overflow=hidden;rotatable=0;points=[[0,0.5],[1,0.5]];portConstraint=eastwest;" parent="D1lF1ObZIwqADInwhETv-13" vertex="1">
          <mxGeometry y="88" width="200" height="132" as="geometry" />
        </mxCell>
        <mxCell id="U_P6BfGdcvrTyJJGUCVO-14" style="edgeStyle=orthogonalEdgeStyle;rounded=0;orthogonalLoop=1;jettySize=auto;html=1;entryX=0.65;entryY=1;entryDx=0;entryDy=0;entryPerimeter=0;fontSize=10;endArrow=block;endFill=0;strokeWidth=1;" edge="1" parent="1" source="D1lF1ObZIwqADInwhETv-17" target="D1lF1ObZIwqADInwhETv-16">
          <mxGeometry relative="1" as="geometry" />
        </mxCell>
        <mxCell id="D1lF1ObZIwqADInwhETv-17" value="abstract MoveableGameObject" style="swimlane;fontStyle=1;align=center;verticalAlign=top;childLayout=stackLayout;horizontal=1;startSize=26;horizontalStack=0;resizeParent=1;resizeParentMax=0;resizeLast=0;collapsible=1;marginBottom=0;" parent="1" vertex="1">
          <mxGeometry x="880" y="320" width="290" height="210" as="geometry" />
        </mxCell>
        <mxCell id="D1lF1ObZIwqADInwhETv-18" value="-heading: int&#xa;-speed: int&#xa;" style="text;strokeColor=none;fillColor=none;align=left;verticalAlign=top;spacingLeft=4;spacingRight=4;overflow=hidden;rotatable=0;points=[[0,0.5],[1,0.5]];portConstraint=eastwest;" parent="D1lF1ObZIwqADInwhETv-17" vertex="1">
          <mxGeometry y="26" width="290" height="54" as="geometry" />
        </mxCell>
        <mxCell id="D1lF1ObZIwqADInwhETv-19" value="" style="line;strokeWidth=1;fillColor=none;align=left;verticalAlign=middle;spacingTop=-1;spacingLeft=3;spacingRight=3;rotatable=0;labelPosition=right;points=[];portConstraint=eastwest;" parent="D1lF1ObZIwqADInwhETv-17" vertex="1">
          <mxGeometry y="80" width="290" height="8" as="geometry" />
        </mxCell>
        <mxCell id="D1lF1ObZIwqADInwhETv-20" value="+MovableGameObject(int, Point, int, int, int, int, int)&#xa;+move()&#xa;+getHeading(): int&#xa;+setHeading(int)&#xa;+getSpeed(): int&#xa;+setSpeed(int)&#xa;+toString(): String&#xa;" style="text;strokeColor=none;fillColor=none;align=left;verticalAlign=top;spacingLeft=4;spacingRight=4;overflow=hidden;rotatable=0;points=[[0,0.5],[1,0.5]];portConstraint=eastwest;" parent="D1lF1ObZIwqADInwhETv-17" vertex="1">
          <mxGeometry y="88" width="290" height="122" as="geometry" />
        </mxCell>
        <mxCell id="D1lF1ObZIwqADInwhETv-21" value="abstract FixedGameObject" style="swimlane;fontStyle=1;align=center;verticalAlign=top;childLayout=stackLayout;horizontal=1;startSize=26;horizontalStack=0;resizeParent=1;resizeParentMax=0;resizeLast=0;collapsible=1;marginBottom=0;" parent="1" vertex="1">
          <mxGeometry x="350" y="460" width="255" height="94" as="geometry" />
        </mxCell>
        <mxCell id="D1lF1ObZIwqADInwhETv-23" value="" style="line;strokeWidth=1;fillColor=none;align=left;verticalAlign=middle;spacingTop=-1;spacingLeft=3;spacingRight=3;rotatable=0;labelPosition=right;points=[];portConstraint=eastwest;" parent="D1lF1ObZIwqADInwhETv-21" vertex="1">
          <mxGeometry y="26" width="255" height="8" as="geometry" />
        </mxCell>
        <mxCell id="D1lF1ObZIwqADInwhETv-24" value="+FixedGameObject(int, Point, int, int, int)&#xa;&#xa;+setLocation(Point)" style="text;strokeColor=none;fillColor=none;align=left;verticalAlign=top;spacingLeft=4;spacingRight=4;overflow=hidden;rotatable=0;points=[[0,0.5],[1,0.5]];portConstraint=eastwest;" parent="D1lF1ObZIwqADInwhETv-21" vertex="1">
          <mxGeometry y="34" width="255" height="60" as="geometry" />
        </mxCell>
        <mxCell id="U_P6BfGdcvrTyJJGUCVO-20" style="edgeStyle=orthogonalEdgeStyle;rounded=0;orthogonalLoop=1;jettySize=auto;html=1;fontSize=10;endArrow=block;endFill=0;strokeWidth=1;" edge="1" parent="1" source="D1lF1ObZIwqADInwhETv-25">
          <mxGeometry relative="1" as="geometry">
            <mxPoint x="430" y="560" as="targetPoint" />
          </mxGeometry>
        </mxCell>
        <mxCell id="D1lF1ObZIwqADInwhETv-25" value="Flag" style="swimlane;fontStyle=1;align=center;verticalAlign=top;childLayout=stackLayout;horizontal=1;startSize=26;horizontalStack=0;resizeParent=1;resizeParentMax=0;resizeLast=0;collapsible=1;marginBottom=0;" parent="1" vertex="1">
          <mxGeometry x="260" y="690" width="180" height="160" as="geometry" />
        </mxCell>
        <mxCell id="D1lF1ObZIwqADInwhETv-26" value="-sequenceNumber: int" style="text;strokeColor=none;fillColor=none;align=left;verticalAlign=top;spacingLeft=4;spacingRight=4;overflow=hidden;rotatable=0;points=[[0,0.5],[1,0.5]];portConstraint=eastwest;" parent="D1lF1ObZIwqADInwhETv-25" vertex="1">
          <mxGeometry y="26" width="180" height="26" as="geometry" />
        </mxCell>
        <mxCell id="D1lF1ObZIwqADInwhETv-27" value="" style="line;strokeWidth=1;fillColor=none;align=left;verticalAlign=middle;spacingTop=-1;spacingLeft=3;spacingRight=3;rotatable=0;labelPosition=right;points=[];portConstraint=eastwest;" parent="D1lF1ObZIwqADInwhETv-25" vertex="1">
          <mxGeometry y="52" width="180" height="8" as="geometry" />
        </mxCell>
        <mxCell id="D1lF1ObZIwqADInwhETv-28" value="+Flag(Point, int)&#xa;+getSequenceNumber(): int&#xa;&#xa;+setSequenceNumber(int)&#xa;+setColor(int, int, int)&#xa;+toString(): String&#xa;" style="text;strokeColor=none;fillColor=none;align=left;verticalAlign=top;spacingLeft=4;spacingRight=4;overflow=hidden;rotatable=0;points=[[0,0.5],[1,0.5]];portConstraint=eastwest;" parent="D1lF1ObZIwqADInwhETv-25" vertex="1">
          <mxGeometry y="60" width="180" height="100" as="geometry" />
        </mxCell>
        <mxCell id="U_P6BfGdcvrTyJJGUCVO-19" style="edgeStyle=orthogonalEdgeStyle;rounded=0;orthogonalLoop=1;jettySize=auto;html=1;entryX=0.788;entryY=1;entryDx=0;entryDy=0;entryPerimeter=0;fontSize=10;endArrow=block;endFill=0;strokeWidth=1;" edge="1" parent="1" source="D1lF1ObZIwqADInwhETv-33" target="D1lF1ObZIwqADInwhETv-24">
          <mxGeometry relative="1" as="geometry" />
        </mxCell>
        <mxCell id="D1lF1ObZIwqADInwhETv-33" value="FoodStation" style="swimlane;fontStyle=1;align=center;verticalAlign=top;childLayout=stackLayout;horizontal=1;startSize=26;horizontalStack=0;resizeParent=1;resizeParentMax=0;resizeLast=0;collapsible=1;marginBottom=0;" parent="1" vertex="1">
          <mxGeometry x="520" y="690" width="160" height="140" as="geometry" />
        </mxCell>
        <mxCell id="D1lF1ObZIwqADInwhETv-34" value="-capacity: int" style="text;strokeColor=none;fillColor=none;align=left;verticalAlign=top;spacingLeft=4;spacingRight=4;overflow=hidden;rotatable=0;points=[[0,0.5],[1,0.5]];portConstraint=eastwest;" parent="D1lF1ObZIwqADInwhETv-33" vertex="1">
          <mxGeometry y="26" width="160" height="34" as="geometry" />
        </mxCell>
        <mxCell id="D1lF1ObZIwqADInwhETv-35" value="" style="line;strokeWidth=1;fillColor=none;align=left;verticalAlign=middle;spacingTop=-1;spacingLeft=3;spacingRight=3;rotatable=0;labelPosition=right;points=[];portConstraint=eastwest;" parent="D1lF1ObZIwqADInwhETv-33" vertex="1">
          <mxGeometry y="60" width="160" height="8" as="geometry" />
        </mxCell>
        <mxCell id="D1lF1ObZIwqADInwhETv-36" value="+FoodStation(int, Point)&#xa;+getCapacity(): int&#xa;+setCapacity(int)&#xa;+toString(): String&#xa;" style="text;strokeColor=none;fillColor=none;align=left;verticalAlign=top;spacingLeft=4;spacingRight=4;overflow=hidden;rotatable=0;points=[[0,0.5],[1,0.5]];portConstraint=eastwest;" parent="D1lF1ObZIwqADInwhETv-33" vertex="1">
          <mxGeometry y="68" width="160" height="72" as="geometry" />
        </mxCell>
        <mxCell id="U_P6BfGdcvrTyJJGUCVO-16" style="edgeStyle=orthogonalEdgeStyle;rounded=0;orthogonalLoop=1;jettySize=auto;html=1;entryX=0.155;entryY=1;entryDx=0;entryDy=0;entryPerimeter=0;fontSize=10;endArrow=block;endFill=0;strokeWidth=1;" edge="1" parent="1" source="D1lF1ObZIwqADInwhETv-39" target="D1lF1ObZIwqADInwhETv-20">
          <mxGeometry relative="1" as="geometry" />
        </mxCell>
        <mxCell id="D1lF1ObZIwqADInwhETv-39" value="Spider" style="swimlane;fontStyle=1;align=center;verticalAlign=top;childLayout=stackLayout;horizontal=1;startSize=26;horizontalStack=0;resizeParent=1;resizeParentMax=0;resizeLast=0;collapsible=1;marginBottom=0;" parent="1" vertex="1">
          <mxGeometry x="770" y="610" width="160" height="90" as="geometry" />
        </mxCell>
        <mxCell id="D1lF1ObZIwqADInwhETv-41" value="" style="line;strokeWidth=1;fillColor=none;align=left;verticalAlign=middle;spacingTop=-1;spacingLeft=3;spacingRight=3;rotatable=0;labelPosition=right;points=[];portConstraint=eastwest;" parent="D1lF1ObZIwqADInwhETv-39" vertex="1">
          <mxGeometry y="26" width="160" height="8" as="geometry" />
        </mxCell>
        <mxCell id="D1lF1ObZIwqADInwhETv-42" value="+Spider(int, Point, int, int)&#xa;+spiderHeading()&#xa;+toString(): String&#xa;" style="text;strokeColor=none;fillColor=none;align=left;verticalAlign=top;spacingLeft=4;spacingRight=4;overflow=hidden;rotatable=0;points=[[0,0.5],[1,0.5]];portConstraint=eastwest;" parent="D1lF1ObZIwqADInwhETv-39" vertex="1">
          <mxGeometry y="34" width="160" height="56" as="geometry" />
        </mxCell>
        <mxCell id="D1lF1ObZIwqADInwhETv-47" value="Starter" style="swimlane;fontStyle=1;align=center;verticalAlign=top;childLayout=stackLayout;horizontal=1;startSize=26;horizontalStack=0;resizeParent=1;resizeParentMax=0;resizeLast=0;collapsible=1;marginBottom=0;" parent="1" vertex="1">
          <mxGeometry x="10" y="100" width="160" height="188" as="geometry" />
        </mxCell>
        <mxCell id="D1lF1ObZIwqADInwhETv-48" value="-current: Form&#xa;-theme: Resources&#xa;" style="text;strokeColor=none;fillColor=none;align=left;verticalAlign=top;spacingLeft=4;spacingRight=4;overflow=hidden;rotatable=0;points=[[0,0.5],[1,0.5]];portConstraint=eastwest;" parent="D1lF1ObZIwqADInwhETv-47" vertex="1">
          <mxGeometry y="26" width="160" height="54" as="geometry" />
        </mxCell>
        <mxCell id="D1lF1ObZIwqADInwhETv-49" value="" style="line;strokeWidth=1;fillColor=none;align=left;verticalAlign=middle;spacingTop=-1;spacingLeft=3;spacingRight=3;rotatable=0;labelPosition=right;points=[];portConstraint=eastwest;" parent="D1lF1ObZIwqADInwhETv-47" vertex="1">
          <mxGeometry y="80" width="160" height="8" as="geometry" />
        </mxCell>
        <mxCell id="D1lF1ObZIwqADInwhETv-50" value="+init()&#xa;+start()&#xa;+stop()&#xa;+destroy()&#xa;&#xa;" style="text;strokeColor=none;fillColor=none;align=left;verticalAlign=top;spacingLeft=4;spacingRight=4;overflow=hidden;rotatable=0;points=[[0,0.5],[1,0.5]];portConstraint=eastwest;" parent="D1lF1ObZIwqADInwhETv-47" vertex="1">
          <mxGeometry y="88" width="160" height="100" as="geometry" />
        </mxCell>
        <mxCell id="U_P6BfGdcvrTyJJGUCVO-17" style="edgeStyle=orthogonalEdgeStyle;rounded=0;orthogonalLoop=1;jettySize=auto;html=1;entryX=0.593;entryY=1;entryDx=0;entryDy=0;entryPerimeter=0;fontSize=10;endArrow=block;endFill=0;strokeWidth=1;" edge="1" parent="1" source="U_P6BfGdcvrTyJJGUCVO-1" target="D1lF1ObZIwqADInwhETv-20">
          <mxGeometry relative="1" as="geometry" />
        </mxCell>
        <mxCell id="U_P6BfGdcvrTyJJGUCVO-1" value="Ant" style="swimlane;fontStyle=1;align=center;verticalAlign=top;childLayout=stackLayout;horizontal=1;startSize=26;horizontalStack=0;resizeParent=1;resizeParentMax=0;resizeLast=0;collapsible=1;marginBottom=0;" vertex="1" parent="1">
          <mxGeometry x="980" y="610" width="200" height="350" as="geometry" />
        </mxCell>
        <mxCell id="U_P6BfGdcvrTyJJGUCVO-2" value="-maximumSpeed: int&#xa;-foodLevel: int&#xa;-foodConsumption: int&#xa;-healthLevel: int&#xa;-lastFlagReached: int&#xa;&#xa;&#xa;" style="text;strokeColor=none;fillColor=none;align=left;verticalAlign=top;spacingLeft=4;spacingRight=4;overflow=hidden;rotatable=0;points=[[0,0.5],[1,0.5]];portConstraint=eastwest;" vertex="1" parent="U_P6BfGdcvrTyJJGUCVO-1">
          <mxGeometry y="26" width="200" height="94" as="geometry" />
        </mxCell>
        <mxCell id="U_P6BfGdcvrTyJJGUCVO-3" value="" style="line;strokeWidth=1;fillColor=none;align=left;verticalAlign=middle;spacingTop=-1;spacingLeft=3;spacingRight=3;rotatable=0;labelPosition=right;points=[];portConstraint=eastwest;" vertex="1" parent="U_P6BfGdcvrTyJJGUCVO-1">
          <mxGeometry y="120" width="200" height="8" as="geometry" />
        </mxCell>
        <mxCell id="U_P6BfGdcvrTyJJGUCVO-4" value="+Ant(Point, int, int)&#xa;&#xa;+getMaximumSpeed(): int+setMaximumSpeed(int)&#xa;+getFoodLevel(): int&#xa;+setFoodLevel(int)&#xa;+getFoodConsumptionRate(): int&#xa;+setFoodConsumptionRate(int)&#xa;+getHealthLevel(): int&#xa;+setHealthLevel(int)&#xa;+getLastFlagReached(): int&#xa;+setLastFlagReached(int)&#xa;+steering(int)&#xa;+toString(): String&#xa;&#xa;&#xa;" style="text;strokeColor=none;fillColor=none;align=left;verticalAlign=top;spacingLeft=4;spacingRight=4;overflow=hidden;rotatable=0;points=[[0,0.5],[1,0.5]];portConstraint=eastwest;" vertex="1" parent="U_P6BfGdcvrTyJJGUCVO-1">
          <mxGeometry y="128" width="200" height="222" as="geometry" />
        </mxCell>
        <mxCell id="U_P6BfGdcvrTyJJGUCVO-5" value="Java.util.ArrayList" style="html=1;" vertex="1" parent="1">
          <mxGeometry x="740" y="10" width="110" height="50" as="geometry" />
        </mxCell>
        <mxCell id="U_P6BfGdcvrTyJJGUCVO-6" value="Java.util.Random" style="html=1;" vertex="1" parent="1">
          <mxGeometry x="740" y="80" width="110" height="50" as="geometry" />
        </mxCell>
        <mxCell id="U_P6BfGdcvrTyJJGUCVO-7" style="edgeStyle=orthogonalEdgeStyle;rounded=0;orthogonalLoop=1;jettySize=auto;html=1;endArrow=block;endFill=0;" edge="1" parent="1" source="D1lF1ObZIwqADInwhETv-3" target="D1lF1ObZIwqADInwhETv-1">
          <mxGeometry relative="1" as="geometry" />
        </mxCell>
        <mxCell id="U_P6BfGdcvrTyJJGUCVO-8" style="edgeStyle=orthogonalEdgeStyle;rounded=0;orthogonalLoop=1;jettySize=auto;html=1;entryX=1.019;entryY=0.056;entryDx=0;entryDy=0;entryPerimeter=0;" edge="1" parent="1" source="D1lF1ObZIwqADInwhETv-5" target="D1lF1ObZIwqADInwhETv-48">
          <mxGeometry relative="1" as="geometry" />
        </mxCell>
        <mxCell id="U_P6BfGdcvrTyJJGUCVO-9" style="edgeStyle=orthogonalEdgeStyle;rounded=0;orthogonalLoop=1;jettySize=auto;html=1;endArrow=diamondThin;endFill=1;" edge="1" parent="1" source="D1lF1ObZIwqADInwhETv-8">
          <mxGeometry relative="1" as="geometry">
            <mxPoint x="410" y="40" as="targetPoint" />
          </mxGeometry>
        </mxCell>
        <mxCell id="U_P6BfGdcvrTyJJGUCVO-10" style="edgeStyle=orthogonalEdgeStyle;rounded=0;orthogonalLoop=1;jettySize=auto;html=1;exitX=1;exitY=0.5;exitDx=0;exitDy=0;entryX=0;entryY=0.5;entryDx=0;entryDy=0;endArrow=classic;endFill=1;" edge="1" parent="1" source="D1lF1ObZIwqADInwhETv-8" target="U_P6BfGdcvrTyJJGUCVO-5">
          <mxGeometry relative="1" as="geometry">
            <Array as="points">
              <mxPoint x="690" y="50" />
              <mxPoint x="710" y="50" />
              <mxPoint x="710" y="35" />
            </Array>
          </mxGeometry>
        </mxCell>
        <mxCell id="U_P6BfGdcvrTyJJGUCVO-11" style="edgeStyle=orthogonalEdgeStyle;rounded=0;orthogonalLoop=1;jettySize=auto;html=1;exitX=1;exitY=0.5;exitDx=0;exitDy=0;entryX=0;entryY=0.5;entryDx=0;entryDy=0;endArrow=classic;endFill=1;" edge="1" parent="1" source="D1lF1ObZIwqADInwhETv-8" target="U_P6BfGdcvrTyJJGUCVO-6">
          <mxGeometry relative="1" as="geometry" />
        </mxCell>
        <mxCell id="U_P6BfGdcvrTyJJGUCVO-18" style="edgeStyle=orthogonalEdgeStyle;rounded=0;orthogonalLoop=1;jettySize=auto;html=1;entryX=1;entryY=0.5;entryDx=0;entryDy=0;fontSize=10;endArrow=block;endFill=0;strokeWidth=1;dashed=1;" edge="1" parent="1" source="U_P6BfGdcvrTyJJGUCVO-4" target="D1lF1ObZIwqADInwhETv-11">
          <mxGeometry relative="1" as="geometry" />
        </mxCell>
        <mxCell id="U_P6BfGdcvrTyJJGUCVO-21" style="edgeStyle=orthogonalEdgeStyle;rounded=0;orthogonalLoop=1;jettySize=auto;html=1;entryX=0;entryY=0.864;entryDx=0;entryDy=0;entryPerimeter=0;fontSize=10;endArrow=block;endFill=0;strokeWidth=1;" edge="1" parent="1" source="D1lF1ObZIwqADInwhETv-24" target="D1lF1ObZIwqADInwhETv-16">
          <mxGeometry relative="1" as="geometry">
            <Array as="points">
              <mxPoint x="820" y="524" />
              <mxPoint x="820" y="290" />
              <mxPoint x="890" y="290" />
              <mxPoint x="890" y="212" />
            </Array>
          </mxGeometry>
        </mxCell>
        <mxCell id="U_P6BfGdcvrTyJJGUCVO-23" style="edgeStyle=orthogonalEdgeStyle;rounded=0;orthogonalLoop=1;jettySize=auto;html=1;entryX=1.005;entryY=0.369;entryDx=0;entryDy=0;entryPerimeter=0;fontSize=10;endArrow=diamondThin;endFill=0;strokeWidth=1;" edge="1" parent="1" source="D1lF1ObZIwqADInwhETv-16" target="D1lF1ObZIwqADInwhETv-10">
          <mxGeometry relative="1" as="geometry" />
        </mxCell>
      </root>
    </mxGraphModel>
  </diagram>
</mxfile>
